<svg version="1.1" id="Layer_1" xmlns="http://www.w3.org/2000/svg" xmlns:xlink="http://www.w3.org/1999/xlink" x="0px" y="0px"
	 width="100%" viewBox="0 0 1080 1087" enable-background="new 0 0 1080 1087" xml:space="preserve">
<path fill="#000000" opacity="1.000000" stroke="none" 
	d="
M823.010620,531.097168 
	C832.866577,545.007874 842.769836,558.478943 852.442078,572.113892 
	C859.111267,581.515503 865.334167,591.233643 871.999084,600.638428 
	C876.238098,606.620056 881.499207,611.944092 885.214661,618.208008 
	C887.980652,622.871277 893.588867,627.201843 890.068909,634.069153 
	C889.595093,634.993591 890.000183,636.369141 890.000183,637.535767 
	C890.000000,668.701721 890.000000,699.867737 890.000000,731.033691 
	C890.000000,732.837646 890.000000,734.641663 890.000000,736.903503 
	C791.294983,736.903503 692.898560,736.903503 594.000000,736.903503 
	C594.000000,739.301453 594.000000,741.247375 594.000000,743.193359 
	C594.000000,822.358276 593.925476,901.523438 594.174316,980.687561 
	C594.190247,985.755676 592.525085,989.656433 589.855591,993.195007 
	C584.540100,1000.241028 578.487854,1006.728638 573.116272,1013.735474 
	C565.633850,1023.495789 558.491577,1033.517090 551.214905,1043.434814 
	C549.115967,1046.295532 547.054688,1049.183838 544.977783,1052.060547 
	C542.170288,1055.949219 539.856934,1055.987305 537.048584,1052.208374 
	C533.044312,1046.820312 529.106934,1041.379883 524.996582,1036.073608 
	C520.253052,1029.949829 515.207642,1024.056152 510.560791,1017.862000 
	C505.855011,1011.589355 501.516632,1005.042297 496.931213,998.677490 
	C495.367554,996.507080 493.611786,994.462769 491.821808,992.470459 
	C488.421997,988.686340 487.895477,984.303894 487.904083,979.337219 
	C488.040497,900.672546 488.000000,822.007568 488.000000,743.342651 
	C488.000000,741.383057 488.000000,739.423523 488.000000,737.184937 
	C388.992096,737.184937 290.381042,737.184937 191.365448,737.184937 
	C191.228790,735.687866 191.015244,734.435425 191.014587,733.182922 
	C190.996429,699.183655 191.155655,665.183044 190.847534,631.186584 
	C190.795883,625.488342 194.686234,622.319214 196.897552,618.179626 
	C199.462814,613.377686 203.713013,609.506897 206.915771,605.006958 
	C211.484772,598.587524 215.673584,591.898499 220.193069,585.442383 
	C226.735535,576.096497 233.440948,566.864746 240.054199,557.568237 
	C249.661911,544.062256 259.271332,530.557312 268.837189,517.021606 
	C274.286255,509.311096 278.960022,500.906128 285.291718,494.016754 
	C289.609985,489.318207 288.962280,484.621338 288.964233,479.602203 
	C289.010284,360.271515 288.926666,240.940628 289.202850,121.610573 
	C289.217682,115.220573 291.913971,108.757866 293.837280,102.474503 
	C295.586853,96.758789 297.442017,90.951164 300.244080,85.715736 
	C303.223328,80.149124 306.862000,74.739532 311.128540,70.104362 
	C317.312286,63.386364 323.866760,56.829647 331.117828,51.331314 
	C336.857178,46.979275 343.702423,43.904202 350.388000,41.034050 
	C356.688568,38.329166 363.394165,36.539898 369.983490,34.553112 
	C371.830200,33.996292 373.895477,34.020966 375.860535,34.020542 
	C483.858154,33.997391 591.855835,34.042782 699.853333,33.940052 
	C711.900330,33.928593 722.738037,37.237011 733.373901,42.691853 
	C744.904663,48.605709 755.684998,55.606911 764.762024,64.648323 
	C771.027588,70.889290 776.408569,78.387650 780.611511,86.173447 
	C782.700562,90.043343 784.615662,94.259392 786.651489,98.300446 
	C786.866455,98.727043 786.893494,99.252579 786.984863,99.736526 
	C788.325562,106.833984 790.216064,113.883240 790.848877,121.043556 
	C791.521179,128.650635 791.000000,136.363190 791.000000,144.029694 
	C791.000000,254.693924 791.094604,365.358398 790.799988,476.021851 
	C790.778992,483.906677 793.260071,489.992798 797.603638,495.931488 
	C805.018738,506.069641 812.391296,516.238892 819.783386,526.393799 
	C820.837402,527.841736 821.900513,529.283081 823.010620,531.097168 
z"/>
</svg>